<?xml version="1.0" encoding="UTF-8" standalone="no"?>
<svg
   width="470"
   zoomAndPan="magnify"
   viewBox="0 0 352.5 187.5"
   height="250"
   preserveAspectRatio="xMidYMid"
   version="1.0"
   id="svg105"
   sodipodi:docname="adminlogo.svg"
   inkscape:export-filename="adminlogo.svg"
   inkscape:export-xdpi="153.60001"
   inkscape:export-ydpi="153.60001"
   xmlns:inkscape="http://www.inkscape.org/namespaces/inkscape"
   xmlns:sodipodi="http://sodipodi.sourceforge.net/DTD/sodipodi-0.dtd"
   xmlns="http://www.w3.org/2000/svg"
   xmlns:svg="http://www.w3.org/2000/svg">
  <sodipodi:namedview
     id="namedview107"
     pagecolor="#ffffff"
     bordercolor="#000000"
     borderopacity="0.25"
     inkscape:showpageshadow="2"
     inkscape:pageopacity="0.0"
     inkscape:pagecheckerboard="0"
     inkscape:deskcolor="#d1d1d1"
     showgrid="false" />
  <defs
     id="defs19">
    <clipPath
       id="54856d5125">
      <path
         d="M 22,116 H 164 V 261 H 22 Z m 0,0"
         clip-rule="nonzero"
         id="path4" />
    </clipPath>
    <clipPath
       id="4e1cf22c85">
      <path
         d="M 59.242188,93.886719 187.71094,153.79687 129.07031,279.54687 0.601562,219.63672 Z m 0,0"
         clip-rule="nonzero"
         id="path7" />
    </clipPath>
    <clipPath
       id="bbe31474d4">
      <path
         d="M 59.242188,93.886719 187.71094,153.79687 129.07031,279.54687 0.601562,219.63672 Z m 0,0"
         clip-rule="nonzero"
         id="path10" />
    </clipPath>
    <clipPath
       id="c4526c8a04">
      <path
         d="M 59.339844,93.933594 187.6875,153.78516 128.99609,279.64844 0.644531,219.79297 Z m 0,0"
         clip-rule="nonzero"
         id="path13" />
    </clipPath>
    <clipPath
       id="171301e799">
      <path
         d="M 59.339844,93.933594 187.53906,153.71875 128.85547,279.55859 0.652344,219.77344 Z m 0,0"
         clip-rule="nonzero"
         id="path16" />
    </clipPath>
  </defs>
  <g
     clip-path="url(#54856d5125)"
     id="g31"
     transform="translate(0,-75.000001)">
    <g
       clip-path="url(#4e1cf22c85)"
       id="g29">
      <g
         clip-path="url(#bbe31474d4)"
         id="g27">
        <g
           clip-path="url(#c4526c8a04)"
           id="g25">
          <g
             clip-path="url(#171301e799)"
             id="g23">
            <path
               fill="#fec017"
               d="m 157.39062,218.33203 c 15.9375,-36.00391 -0.0781,-78.71094 -35.7539,-95.34765 -31.187501,-14.54688 -67.082032,-4.40235 -86.281251,22.3789 4.894531,-5.41797 12.5,-11.77344 23.117187,-15.21484 20.828125,-6.76953 32.507813,-3.10156 32.507813,-3.10156 -41.167969,1.99218 -68.890625,39.27734 -68.453125,69.45703 1.816406,14.24218 7.832031,27.80468 17.296875,38.76562 2.972656,2.375 6.152343,4.01953 8.175781,-0.52734 l 0.02734,0.0117 c 1.578125,-8.67579 3.984375,-25.55079 2.738281,-28.66797 -1.628906,-4.05078 -8.851563,-5.64063 -9.949219,-10.13282 -1.082031,-4.51953 8.585938,-50.58593 8.585938,-50.58593 0,0 1.332031,-0.59766 2.058594,0.17187 0.703124,0.82031 -5.804688,42.86328 -5.117188,44.20703 0.691406,1.33985 0.730469,0.76563 1.335938,1.08203 0.523437,0.0781 1.210937,0.30079 2.152343,-1.36718 0.957031,-1.69141 5.074219,-41.85547 5.3125,-42.4375 0.222657,-0.61719 0.933594,-2.49219 2.171875,-1.61719 1.25,0.84766 -2.796875,42.75391 -2.429687,44.01172 0.394531,1.26953 0.957031,1.26953 1.574219,1.49219 0.558593,-0.13672 0.921874,0 1.449218,-1.13282 0.546875,-1.09765 3.105469,-43.20703 4.449219,-43.83203 1.355469,-0.64844 1.785156,1.32813 1.90625,1.97656 0.128906,0.65235 -2.054687,41.03125 -1.375,42.82422 0.648437,1.78516 1.3125,1.69922 1.820313,1.73828 0.714843,-0.1914 0.691406,0.35547 1.605468,-0.83203 0.898438,-1.22265 0.992188,-43.82422 1.800782,-44.5 0.820312,-0.63672 2.070312,0.20703 2.070312,0.20703 0,0 2.261719,47.15625 0.523438,51.37891 -1.75,4.25 -9.402344,4.92578 -11.597657,8.64063 -1.722656,2.85156 -2.191406,22.33984 -2.019531,32.55468 0.132812,1.97266 0.597656,4.78907 2.140625,6.49219 2.570313,2.87891 4.472656,2.1875 6.011719,-1.04297 l 17.421875,-36.36328 c 0.445312,-1.30859 0.792969,-2.625 0.777343,-3.71875 -0.04687,-1.17187 -0.40625,-2.23047 -0.828124,-3.01953 -5.382813,-5.10938 -7.175782,-13.47656 -2.261719,-24.57813 6.261719,-14.05859 20.925785,-27.22656 29.980475,-23.00781 9.05469,4.22266 9.03906,24.22266 2.80469,38.29688 -4.6211,10.47656 -11.40625,14.71875 -18.281259,14.50781 -0.953125,0.27734 -2.300781,0.76953 -3.386719,1.61328 -0.742187,0.60547 -1.574218,1.89453 -2.257812,3.22266 l -15.195313,36.25 0.02734,0.0117 c 0,0 -0.515625,4.07031 1.453125,4.85546 1,0.40235 2.214844,-0.51171 3.164062,-1.48437 l -0.03125,-0.0156 c 0,0 0.363282,-0.42187 1.039063,-1.16015 0.347656,-0.46485 0.5625,-0.78906 0.5625,-0.78906 l 0.07031,0.0625 c 8.542968,-9.63672 47.031253,-53.15235 50.460933,-57.54297 3.88282,-4.9375 13.23829,-15.97266 16,-12.08203 2.76172,3.88281 -3.20312,20.55078 -13.58593,36.96484 -10.41406,16.39844 -19.34766,24.83594 -25.59375,27.22266 -6.25781,2.34375 -9.81641,-2.8711 -14.312503,1.61718 -3.035157,3.05469 -5.871094,6.73438 -7.402344,8.82032 -0.21875,0.82031 -0.511719,2.78906 1.144531,3.89062 0.84375,0.58984 2,0.86719 3.046875,1.02344 0.878906,0.0156 1.773438,0.0703 2.667969,0.0625 27.054692,0.33984 52.898442,-15.14844 64.660152,-41.71094"
               fill-opacity="1"
               fill-rule="evenodd"
               id="path21" />
          </g>
        </g>
      </g>
    </g>
  </g>
  <g
     fill="#ff4500"
     fill-opacity="1"
     id="g39"
     transform="translate(0,-75.000001)">
    <g
       transform="translate(171.46559,204.84494)"
       id="g37">
      <g
         id="g35">
        <path
           d="M 19.6875,-10.90625 18.734375,3.0625 c -1.261719,0.300781 -3.078125,0.519531 -5.453125,0.65625 -2.367188,0.132812 -4.511719,0.132812 -6.4375,0 -0.210938,-10.519531 -0.257812,-20.082031 -0.140625,-28.6875 0.125,-8.601562 0.382813,-15.878906 0.78125,-21.828125 0.363281,-0.226563 0.640625,-0.382813 0.828125,-0.46875 0.195312,-0.08203 0.398438,-0.160156 0.609375,-0.234375 1.9375,-0.84375 4.148437,-1.484375 6.640625,-1.921875 2.488281,-0.4375 5.050781,-0.613281 7.6875,-0.53125 2.601562,4.386719 4.863281,8.65625 6.78125,12.8125 1.914062,4.148437 3.65625,8.570313 5.21875,13.265625 0.382812,-5.757812 0.609375,-10.894531 0.671875,-15.40625 0.0625,-4.507812 -0.02344,-8.191406 -0.25,-11.046875 2.550781,-0.601563 5.0625,-1.023437 7.53125,-1.265625 2.476563,-0.238281 4.914063,-0.28125 7.3125,-0.125 -0.04297,2.742188 -0.125,5.386719 -0.25,7.9375 -0.125,2.554688 -0.265625,5.03125 -0.421875,7.4375 -0.40625,5.898438 -0.960938,12.070312 -1.65625,18.515625 -0.699219,6.4375 -1.464844,12.617187 -2.296875,18.53125 C 42.878906,0.984375 40.394531,1.164062 38.4375,1.25 36.476562,1.332031 34.582031,1.363281 32.75,1.34375 30.1875,-6.3125 28.039062,-12.234375 26.3125,-16.421875 24.59375,-20.609375 22.789062,-24.457031 20.90625,-27.96875 20.71875,-26 20.546875,-23.828125 20.390625,-21.453125 20.234375,-19.078125 20,-15.5625 19.6875,-10.90625 Z m 0,0"
           id="path33" />
      </g>
    </g>
  </g>
  <g
     fill="#ff4500"
     fill-opacity="1"
     id="g47"
     transform="translate(0,-75.000001)">
    <g
       transform="translate(221.17177,208.17414)"
       id="g45">
      <g
         id="g43">
        <path
           d="m 26.875,-52.75 c 5.78125,0.04297 10.234375,1.960938 13.359375,5.75 3.132813,3.792969 4.679687,9.152344 4.640625,16.078125 -0.02344,3.761719 -0.554688,7.574219 -1.59375,11.4375 -1.03125,3.867187 -2.445312,7.289063 -4.234375,10.265625 -2.242187,3.554688 -4.960937,6.246094 -8.15625,8.078125 C 27.703125,0.679688 24.113281,1.582031 20.125,1.5625 14.351562,1.519531 9.867188,-0.726562 6.671875,-5.1875 3.472656,-9.65625 1.894531,-15.691406 1.9375,-23.296875 1.988281,-32.003906 4.316406,-39.097656 8.921875,-44.578125 13.523438,-50.066406 19.507812,-52.789062 26.875,-52.75 Z m -3.65625,44.953125 c 2.164062,0.011719 3.785156,-1.472656 4.859375,-4.453125 1.082031,-2.976562 1.644531,-7.910156 1.6875,-14.796875 0.03125,-5.914063 -0.417969,-10.113281 -1.34375,-12.59375 -0.917969,-2.488281 -2.484375,-3.738281 -4.703125,-3.75 -2.210938,-0.0078 -3.914062,1.570313 -5.109375,4.734375 -1.199219,3.167969 -1.8125,7.636719 -1.84375,13.40625 -0.03125,5.492188 0.503906,9.773438 1.609375,12.84375 1.113281,3.0625 2.726562,4.601562 4.84375,4.609375 z m 0,0"
           id="path41" />
      </g>
    </g>
  </g>
  <g
     fill="#ff4500"
     fill-opacity="1"
     id="g55"
     transform="translate(0,-75.000001)">
    <g
       transform="translate(266.71942,208.72232)"
       id="g53">
      <g
         id="g51">
        <path
           d="m 57.984375,-2.53125 c -2.585937,1.167969 -4.980469,2.011719 -7.1875,2.53125 -2.210937,0.519531 -4.75,0.867188 -7.625,1.046875 0.132813,-4.882813 0.144531,-10.578125 0.03125,-17.078125 -0.105469,-6.5 -0.28125,-13.382812 -0.53125,-20.65625 -1.605469,3.09375 -3.078125,6.273438 -4.421875,9.53125 -1.34375,3.261719 -2.558594,6.617188 -3.640625,10.0625 -1.136719,0.40625 -2.511719,0.683594 -4.125,0.828125 -1.605469,0.148437 -3.15625,0.125 -4.65625,-0.0625 -1.585937,-3.050781 -3.261719,-6.023437 -5.03125,-8.921875 -1.761719,-2.90625 -3.621094,-5.722656 -5.578125,-8.453125 0.351562,5.8125 1.03125,11.546875 2.03125,17.203125 1,5.65625 2.160156,10.34375 3.484375,14.0625 -1.261719,0.46875 -3.203125,0.929688 -5.828125,1.375 -2.625,0.449219 -5.070312,0.742188 -7.328125,0.875 C 6.273438,-6.414062 5.007812,-14.394531 3.78125,-24.125 2.5625,-33.863281 1.722656,-42.457031 1.265625,-49.90625 c 1.988281,-1.570312 4.1875,-2.9375 6.59375,-4.09375 2.414063,-1.15625 4.695313,-1.945312 6.84375,-2.375 3.71875,4.261719 6.851563,8.171875 9.40625,11.734375 2.5625,3.554687 4.769531,7.03125 6.625,10.4375 C 32.304688,-38.546875 34.0625,-42.71875 36,-46.71875 c 1.945312,-4.007812 4.039062,-7.765625 6.28125,-11.265625 1.945312,0.167969 3.894531,0.46875 5.84375,0.90625 1.945312,0.429687 3.816406,0.996094 5.609375,1.703125 0.738281,6.5625 1.484375,14.574219 2.234375,24.03125 0.75,9.460938 1.421875,19.0625 2.015625,28.8125 z m 0,0"
           id="path49" />
      </g>
    </g>
  </g>
  <g
     fill="#000000"
     fill-opacity="1"
     id="g63"
     transform="translate(0,-75.000001)">
    <g
       transform="translate(212.83368,239.29417)"
       id="g61">
      <g
         id="g59">
        <path
           d="m 11.390625,0.609375 c -1.28125,-0.0625 -1.960937,-0.304687 -2.03125,-0.71875 l -0.59375,-2.859375 -3.46875,-0.171875 -0.765625,2.6875 c -0.117188,0.44921875 -0.828125,0.632813 -2.140625,0.5625 -0.699219,-0.03125 -1.214844,-0.09375 -1.546875,-0.1875 -0.335938,-0.09375 -0.5,-0.164063 -0.5,-0.21875 l 4.59375,-14.625 c 0.00781,-0.125 1.015625,-0.132813 3.015625,-0.03125 2,0.09375 2.992187,0.203125 2.984375,0.328125 l 3.078125,15.03125 c -0.01172,0.101562 -0.355469,0.164062 -1.03125,0.1875 -0.679687,0.019531 -1.210937,0.023438 -1.59375,0.015625 z M 5.96875,-5.90625 8.265625,-5.796875 7.5,-10.359375 7.359375,-10.375 Z m 0,0"
           id="path57" />
      </g>
    </g>
  </g>
  <g
     fill="#000000"
     fill-opacity="1"
     id="g71"
     transform="translate(0,-75.000001)">
    <g
       transform="translate(227.93728,240.0162)"
       id="g69">
      <g
         id="g67">
        <path
           d="M 1.125,-0.984375 1.453125,-14.125 c 0,-0.363281 0.09375,-0.648438 0.28125,-0.859375 0.1875,-0.207031 0.425781,-0.3125 0.71875,-0.3125 l 3.671875,0.09375 c 2.320312,0.0625 4.070312,0.695313 5.25,1.890625 1.175781,1.1875 1.734375,3.042969 1.671875,5.5625 -0.136719,5.375 -2.496094,8.003906 -7.078125,7.890625 L 2.21875,0.0625 C 1.46875,0.0390625 1.101562,-0.304688 1.125,-0.984375 Z M 5.59375,-11.0625 5.421875,-4.5 c 0,0.304688 0.015625,0.5 0.046875,0.59375 0.039062,0.085938 0.171875,0.125 0.390625,0.125 0.800781,0.023438 1.414063,-0.257812 1.84375,-0.84375 0.4375,-0.59375 0.671875,-1.585938 0.703125,-2.984375 0.039062,-1.394531 -0.152344,-2.3125 -0.578125,-2.75 -0.417969,-0.4375 -1.089844,-0.664063 -2.015625,-0.6875 z m 0,0"
           id="path65" />
      </g>
    </g>
  </g>
  <g
     fill="#000000"
     fill-opacity="1"
     id="g79"
     transform="translate(0,-75.000001)">
    <g
       transform="translate(242.23294,240.4057)"
       id="g77">
      <g
         id="g75">
        <path
           d="M 16.4375,-0.046875 C 15.132812,-0.0351562 14.484375,-0.175781 14.484375,-0.46875 L 14,-9.25 11.359375,-0.359375 c -0.0625,0.179687 -0.5625,0.2734375 -1.5,0.28125 -0.929687,0 -1.40625,-0.078125 -1.4375,-0.234375 l -2.796875,-9 -0.28125,8.75 C 5.332031,-0.34375 5.054688,-0.191406 4.515625,-0.109375 3.972656,-0.0351562 3.519531,0 3.15625,0 2.800781,0 2.457031,-0.015625 2.125,-0.046875 1.425781,-0.148438 1.082031,-0.332031 1.09375,-0.59375 l 0.453125,-14.25 c 0,-0.351562 0.894531,-0.535156 2.6875,-0.546875 0.519531,0 1.160156,0.04297 1.921875,0.125 0.757812,0.07422 1.179688,0.226563 1.265625,0.453125 l 2.484375,6.90625 2.125,-6.9375 c 0.132812,-0.382812 1.144531,-0.578125 3.03125,-0.578125 0.539062,-0.0078 1.1875,0.02734 1.9375,0.109375 0.75,0.08594 1.125,0.230469 1.125,0.4375 L 18.8125,-0.5 c 0,0.15625 -0.289062,0.273438 -0.859375,0.34375 -0.574219,0.0742188 -1.078125,0.109375 -1.515625,0.109375 z m 0,0"
           id="path73" />
      </g>
    </g>
  </g>
  <g
     fill="#000000"
     fill-opacity="1"
     id="g87"
     transform="translate(0,-75.000001)">
    <g
       transform="translate(262.88313,240.2585)"
       id="g85">
      <g
         id="g83">
        <path
           d="m 2.4375,-3.84375 -0.21875,-7.8125 -1.5625,0.04687 c -0.25,0.01172 -0.4375,-0.296875 -0.5625,-0.921875 -0.0546875,-0.3125 -0.0859375,-0.625 -0.09375,-0.9375 0,-0.320312 0.015625,-0.640625 0.046875,-0.953125 0.082031,-0.625 0.25,-0.941406 0.5,-0.953125 l 7.375,-0.203125 c 0.238281,-0.0078 0.414063,0.296875 0.53125,0.921875 0.0625,0.3125 0.09375,0.632812 0.09375,0.953125 0.00781,0.3125 -0.00781,0.625 -0.046875,0.9375 -0.074219,0.625 -0.230469,0.945313 -0.46875,0.953125 L 6.5625,-11.78125 6.78125,-3.96875 8.3125,-4 c 0.25,-0.00781 0.429688,0.296875 0.546875,0.921875 0.070313,0.304687 0.109375,0.617187 0.109375,0.9375 C 8.976562,-1.816406 8.957031,-1.5 8.90625,-1.1875 8.832031,-0.5625 8.671875,-0.242188 8.421875,-0.234375 L 1.03125,-0.03125 C 0.78125,-0.0195312 0.601562,-0.328125 0.5,-0.953125 0.425781,-1.265625 0.382812,-1.582031 0.375,-1.90625 c 0,-0.320312 0.023438,-0.632812 0.078125,-0.9375 0.0625,-0.625 0.21875,-0.941406 0.46875,-0.953125 z m 0,0"
           id="path81" />
      </g>
    </g>
  </g>
  <g
     fill="#000000"
     fill-opacity="1"
     id="g95"
     transform="translate(0,-75.000001)">
    <g
       transform="translate(273.02253,239.98657)"
       id="g93">
      <g
         id="g91">
        <path
           d="m 13.0625,-1.125 c 0.01953,0.3125 -0.65625,0.507812 -2.03125,0.578125 -1.375,0.0625 -2.125,-0.015625 -2.25,-0.234375 L 4.8125,-7.421875 5.140625,-0.625 C 5.148438,-0.363281 4.476562,-0.195312 3.125,-0.125 1.769531,-0.0625 1.085938,-0.160156 1.078125,-0.421875 L 0.359375,-15.0625 c -0.011719,-0.226562 0.5625,-0.375 1.71875,-0.4375 0.445313,-0.01953 0.976563,-0.0039 1.59375,0.04687 0.613281,0.05469 0.992187,0.1875 1.140625,0.40625 l 3.8125,6.578125 -0.34375,-6.875 c -0.011719,-0.28125 0.660156,-0.453125 2.015625,-0.515625 1.363281,-0.07031 2.050781,0.03125 2.0625,0.3125 z m 0,0"
           id="path89" />
      </g>
    </g>
  </g>
  <g
     fill="#ff4500"
     fill-opacity="1"
     id="g103"
     transform="translate(0,-75.000001)">
    <g
       transform="translate(333.01112,155.9408)"
       id="g101">
      <g
         id="g99">
        <path
           d="m 18.078125,-4.453125 c 0,1.167969 -0.09375,2.28125 -0.28125,3.34375 C 17.609375,-0.046875 17.34375,0.898438 17,1.734375 14.132812,1.710938 11.03125,1.476562 7.6875,1.03125 4.34375,0.59375 1.65625,0.0507812 -0.375,-0.59375 c 0,-1.039062 0.042969,-1.847656 0.125,-2.421875 0.074219,-0.582031 0.1953125,-1.117187 0.359375,-1.609375 3.582031,-2.351562 6.375,-4.640625 8.375,-6.859375 2,-2.21875 3,-4.132813 3,-5.75 0,-0.8125 -0.148437,-1.425781 -0.4375,-1.84375 -0.28125,-0.414063 -0.703125,-0.625 -1.265625,-0.625 -0.667969,0 -1.203125,0.371094 -1.609375,1.109375 C 7.765625,-17.851562 7.375,-16.535156 7,-14.640625 c -1.40625,0 -2.667969,-0.101563 -3.78125,-0.3125 -1.105469,-0.207031 -2.105469,-0.535156 -3,-0.984375 0.695312,-2.632812 1.863281,-4.59375 3.5,-5.875 1.644531,-1.289062 3.8125,-1.9375 6.5,-1.9375 2.625,0 4.757812,0.652344 6.40625,1.953125 1.65625,1.292969 2.484375,2.964844 2.484375,5.015625 0,2.125 -0.789063,4.09375 -2.359375,5.90625 -1.5625,1.8125 -4.382812,4.03125 -8.453125,6.65625 3.707031,0 6.050781,-0.015625 7.03125,-0.046875 0.988281,-0.039063 1.90625,-0.101563 2.75,-0.1875 z m 0,0"
           id="path97" />
      </g>
    </g>
  </g>
</svg>
