<svg width="217" height="150" viewBox="0 0 217 150" fill="none" xmlns="http://www.w3.org/2000/svg">
<g id="logo 2">
<g id="Clip path group">
<mask id="mask0_22_604" style="mask-type:luminance" maskUnits="userSpaceOnUse" x="12" y="64" width="83" height="81">
<g id="7246a15943">
<path id="Vector" d="M12.7307 64.3413H94.9014V144.768H12.7307V64.3413Z" fill="white"/>
</g>
</mask>
<g mask="url(#mask0_22_604)">
<g id="Group">
<g id="Clip path group_2">
<mask id="mask1_22_604" style="mask-type:luminance" maskUnits="userSpaceOnUse" x="0" y="52" width="109" height="104">
<g id="a2aefadbc1">
<path id="Vector_2" d="M34.2815 52.0757L108.622 85.3058L74.6887 155.055L0.348145 121.825L34.2815 52.0757Z" fill="white"/>
</g>
</mask>
<g mask="url(#mask1_22_604)">
<g id="Group_2">
<g id="Clip path group_3">
<mask id="mask2_22_604" style="mask-type:luminance" maskUnits="userSpaceOnUse" x="0" y="52" width="109" height="104">
<g id="b635c1a339">
<path id="Vector_3" d="M34.2815 52.0757L108.622 85.3058L74.6887 155.055L0.348145 121.825L34.2815 52.0757Z" fill="white"/>
</g>
</mask>
<g mask="url(#mask2_22_604)">
<g id="Group_3">
<g id="Clip path group_4">
<mask id="mask3_22_604" style="mask-type:luminance" maskUnits="userSpaceOnUse" x="0" y="52" width="109" height="104">
<g id="6da0c5c37f">
<path id="Vector_4" d="M34.3381 52.1016L108.609 85.2992L74.6458 155.111L0.373047 121.912L34.3381 52.1016Z" fill="white"/>
</g>
</mask>
<g mask="url(#mask3_22_604)">
<g id="Group_4">
<g id="Clip path group_5">
<mask id="mask4_22_604" style="mask-type:luminance" maskUnits="userSpaceOnUse" x="0" y="52" width="109" height="104">
<g id="6f6b82b867">
<path id="Vector_5" d="M34.3377 52.1018L108.522 85.2626L74.5641 155.062L0.377197 121.901L34.3377 52.1018Z" fill="white"/>
</g>
</mask>
<g mask="url(#mask4_22_604)">
<g id="Group_5">
<path id="Vector_6" fill-rule="evenodd" clip-rule="evenodd" d="M91.0768 121.101C100.299 101.131 91.0316 77.443 70.3872 68.2152C52.34 60.1465 31.5691 65.7733 20.4591 80.628C23.2914 77.6228 27.6925 74.0977 33.8363 72.1888C45.8888 68.434 52.6475 70.4685 52.6475 70.4685C28.8249 71.5735 12.7827 92.2543 13.0359 108.994C14.087 116.894 17.568 124.416 23.045 130.496C24.7652 131.813 26.6052 132.725 27.7761 130.203L27.7919 130.21C28.7051 125.398 30.0975 116.038 29.3765 114.309C28.4339 112.062 24.2544 111.18 23.6192 108.688C22.993 106.182 28.5876 80.6302 28.5876 80.6302C28.5876 80.6302 29.3584 80.2987 29.7788 80.7255C30.1857 81.1805 26.4198 104.5 26.8177 105.246C27.2178 105.989 27.2404 105.67 27.5907 105.846C27.8936 105.889 28.2915 106.013 28.8362 105.087C29.39 104.149 31.7725 81.8717 31.9104 81.5488C32.0392 81.2065 32.4506 80.1665 33.1672 80.6518C33.8905 81.122 31.5487 104.366 31.7612 105.064C31.9895 105.768 32.315 105.768 32.6722 105.891C32.9954 105.815 33.2056 105.891 33.5108 105.263C33.8272 104.654 35.3078 81.2975 36.0854 80.9508C36.8697 80.5912 37.1184 81.6875 37.1885 82.0472C37.2631 82.409 35.9995 104.806 36.3928 105.8C36.768 106.79 37.1523 106.743 37.4462 106.764C37.8598 106.658 37.8462 106.962 38.3752 106.303C38.8951 105.625 38.9493 81.9952 39.4172 81.6203C39.8919 81.2672 40.6153 81.7352 40.6153 81.7352C40.6153 81.7352 41.924 107.891 40.9182 110.233C39.9055 112.591 35.4773 112.965 34.207 115.026C33.2101 116.608 32.9389 127.417 33.0383 133.083C33.1152 134.177 33.3842 135.739 34.277 136.684C35.7644 138.281 36.8652 137.897 37.7558 136.105L47.8373 115.936C48.095 115.21 48.2962 114.48 48.2871 113.873C48.26 113.223 48.052 112.636 47.8079 112.198C44.693 109.364 43.6555 104.723 46.4991 98.5658C50.1226 90.768 58.6082 83.4642 63.8478 85.8042C69.0875 88.1463 69.0784 99.2397 65.4708 107.046C62.7967 112.857 58.8704 115.21 54.892 115.093C54.3405 115.247 53.5607 115.52 52.9323 115.988C52.5028 116.324 52.0213 117.039 51.6257 117.775L42.8327 137.882L42.8485 137.889C42.8485 137.889 42.5502 140.146 43.6894 140.582C44.2681 140.805 44.9711 140.298 45.5204 139.758L45.5023 139.75C45.5023 139.75 45.7125 139.516 46.1035 139.106C46.3047 138.848 46.4291 138.669 46.4291 138.669L46.4697 138.703C51.4133 133.358 73.6852 109.221 75.6698 106.786C77.9167 104.047 83.3304 97.9267 84.9285 100.085C86.5266 102.238 83.0749 111.483 77.0667 120.588C71.0405 129.683 65.8709 134.363 62.2565 135.687C58.6353 136.987 56.5761 134.095 53.9743 136.584C52.218 138.279 50.5769 140.32 49.6908 141.477C49.5642 141.932 49.3947 143.024 50.3531 143.635C50.8414 143.962 51.5105 144.116 52.1163 144.202C52.6249 144.211 53.1425 144.241 53.6601 144.237C69.3158 144.425 84.2707 135.835 91.0768 121.101Z" fill="white"/>
</g>
</g>
</g>
</g>
</g>
</g>
</g>
</g>
</g>
</g>
</g>
</g>
</g>
</g>
</g>
<g id="Group_6">
<g id="Group_7">
<g id="Group_8">
<path id="Vector_7" d="M110.614 107.571L110.062 115.319C109.332 115.486 108.281 115.607 106.907 115.683C105.537 115.757 104.296 115.757 103.182 115.683C103.06 109.848 103.032 104.544 103.1 99.7713C103.173 95.0003 103.322 90.9638 103.552 87.6639C103.763 87.5383 103.923 87.4516 104.032 87.4039C104.145 87.3584 104.262 87.3151 104.384 87.2739C105.505 86.8059 106.785 86.4506 108.227 86.2079C109.667 85.9653 111.15 85.8678 112.675 85.9133C114.181 88.3464 115.49 90.7146 116.6 93.0199C117.707 95.3209 118.715 97.7736 119.619 100.378C119.841 97.1843 119.972 94.3351 120.008 91.8326C120.044 89.3323 119.995 87.2891 119.864 85.7053C121.34 85.3716 122.793 85.1376 124.222 85.0033C125.655 84.8711 127.065 84.8473 128.453 84.9339C128.428 86.4549 128.381 87.9218 128.308 89.3366C128.236 90.7536 128.155 92.1273 128.064 93.4619C127.829 96.7336 127.508 100.157 127.106 103.732C126.701 107.303 126.258 110.73 125.777 114.011C124.034 114.167 122.596 114.266 121.464 114.314C120.329 114.359 119.233 114.377 118.173 114.366C116.69 110.119 115.447 106.835 114.448 104.512C113.453 102.189 112.409 100.055 111.319 98.1073C111.211 99.1993 111.111 100.404 111.021 101.721C110.93 103.039 110.795 104.989 110.614 107.571Z" fill="white"/>
</g>
</g>
</g>
<g id="Group_9">
<g id="Group_10">
<g id="Group_11">
<path id="Vector_8" d="M143.536 86.2085C146.882 86.2323 149.459 87.2961 151.267 89.3978C153.08 91.5016 153.975 94.4743 153.952 98.3158C153.939 100.402 153.631 102.517 153.03 104.66C152.433 106.805 151.615 108.703 150.58 110.354C149.282 112.325 147.709 113.818 145.86 114.834C144.016 115.844 141.938 116.345 139.63 116.334C136.289 116.31 133.694 115.064 131.845 112.59C129.994 110.111 129.081 106.764 129.106 102.545C129.135 97.7156 130.482 93.781 133.147 90.7411C135.81 87.697 139.273 86.1868 143.536 86.2085ZM141.421 111.142C142.673 111.149 143.611 110.326 144.233 108.672C144.859 107.021 145.184 104.285 145.209 100.465C145.227 97.1848 144.967 94.8556 144.431 93.4798C143.9 92.0996 142.994 91.4063 141.71 91.3998C140.431 91.3955 139.445 92.2708 138.753 94.0258C138.059 95.783 137.704 98.2616 137.686 101.462C137.668 104.508 137.978 106.883 138.618 108.586C139.262 110.284 140.195 111.138 141.421 111.142Z" fill="white"/>
</g>
</g>
</g>
<g id="Group_12">
<g id="Group_13">
<g id="Group_14">
<path id="Vector_9" d="M187.895 114.367C186.399 115.015 185.013 115.483 183.736 115.771C182.457 116.06 180.987 116.252 179.324 116.352C179.401 113.644 179.407 110.485 179.342 106.879C179.281 103.274 179.179 99.4564 179.034 95.422C178.105 97.138 177.253 98.9017 176.476 100.709C175.698 102.518 174.995 104.379 174.369 106.29C173.711 106.515 172.915 106.669 171.982 106.749C171.053 106.832 170.155 106.819 169.287 106.715C168.37 105.023 167.4 103.374 166.376 101.766C165.357 100.154 164.281 98.5919 163.148 97.0774C163.352 100.301 163.745 103.482 164.324 106.619C164.902 109.757 165.574 112.357 166.34 114.419C165.61 114.679 164.486 114.935 162.967 115.182C161.448 115.431 160.033 115.594 158.727 115.667C157.972 112.214 157.239 107.787 156.53 102.39C155.824 96.9885 155.338 92.2219 155.074 88.09C156.225 87.219 157.497 86.4607 158.89 85.8194C160.286 85.178 161.607 84.7404 162.85 84.502C165.002 86.8659 166.815 89.0347 168.293 91.0107C169.776 92.9824 171.053 94.9107 172.127 96.8C173.035 94.3907 174.052 92.0767 175.174 89.858C176.299 87.635 177.511 85.5507 178.808 83.6094C179.934 83.7025 181.062 83.8694 182.19 84.112C183.316 84.3504 184.398 84.6645 185.436 85.0567C185.863 88.6967 186.295 93.1405 186.729 98.386C187.163 103.634 187.552 108.959 187.895 114.367Z" fill="white"/>
</g>
</g>
</g>
<g id="Group_15">
<g id="Group_16">
<g id="Group_17">
<path id="Vector_10" d="M118.746 129.468C118.896 129.602 119.158 129.786 119.533 130.023C119.913 130.254 120.279 130.382 120.636 130.404C120.998 130.428 121.188 130.304 121.206 130.031C121.217 129.91 121.174 129.802 121.079 129.702C120.982 129.604 120.801 129.485 120.537 129.347C120.277 129.208 120.085 129.102 119.958 129.026C119.831 128.946 119.66 128.818 119.443 128.645C119.23 128.471 119.074 128.298 118.972 128.125C118.665 127.639 118.534 127.041 118.584 126.331C118.631 125.62 118.945 125.037 119.524 124.58C120.107 124.125 120.849 123.926 121.748 123.982C122.356 124.023 122.915 124.125 123.421 124.285C123.927 124.441 124.183 124.621 124.189 124.823C124.189 124.846 124.185 124.87 124.18 124.892C124.162 125.176 124.045 125.529 123.828 125.949C123.611 126.372 123.466 126.604 123.394 126.643C122.869 126.348 122.392 126.19 121.965 126.166C121.536 126.138 121.31 126.266 121.287 126.547C121.274 126.727 121.423 126.894 121.73 127.05C121.796 127.085 121.888 127.137 122.01 127.206C122.13 127.271 122.268 127.345 122.426 127.431C122.589 127.518 122.761 127.626 122.942 127.752C123.127 127.88 123.326 128.051 123.538 128.263C123.954 128.697 124.14 129.247 124.099 129.91C124.038 130.772 123.74 131.461 123.204 131.981C122.666 132.501 121.877 132.737 120.835 132.692C120.329 132.657 119.872 132.584 119.47 132.475C119.072 132.371 118.728 132.196 118.439 131.947C118.15 131.693 118.016 131.401 118.041 131.071C118.064 130.738 118.15 130.41 118.294 130.092C118.443 129.769 118.595 129.561 118.746 129.468Z" fill="white"/>
</g>
</g>
</g>
<g id="Group_18">
<g id="Group_19">
<g id="Group_20">
<path id="Vector_11" d="M129.887 124.753C129.892 124.593 130.353 124.532 131.271 124.571C132.186 124.606 132.641 124.706 132.636 124.866L132.374 130.439C132.338 131.266 131.999 131.927 131.361 132.423C130.722 132.919 129.86 133.145 128.775 133.099C127.69 133.058 126.818 132.757 126.162 132.189C125.511 131.617 125.204 130.876 125.24 129.962L125.484 124.58C125.495 124.42 125.959 124.359 126.877 124.398C127.799 124.433 128.253 124.532 128.242 124.693L127.998 130.17C127.991 130.332 128.072 130.465 128.242 130.569C128.423 130.679 128.613 130.74 128.811 130.751C129.015 130.757 129.203 130.72 129.372 130.638C129.539 130.551 129.628 130.419 129.634 130.239L129.887 124.753Z" fill="white"/>
</g>
</g>
</g>
<g id="Group_21">
<g id="Group_22">
<g id="Group_23">
<path id="Vector_12" d="M140.729 133.03C140.722 133.204 140.322 133.282 139.526 133.264C138.731 133.251 138.299 133.186 138.233 133.065L136.199 129.226L136.118 133.004C136.118 133.149 135.724 133.212 134.942 133.195C134.158 133.182 133.767 133.106 133.767 132.961L133.939 124.832C133.939 124.706 134.273 124.65 134.942 124.667C135.2 124.667 135.505 124.697 135.855 124.754C136.21 124.806 136.427 124.892 136.506 125.014L138.45 128.792L138.532 124.979C138.532 124.823 138.923 124.754 139.707 124.771C140.496 124.784 140.892 124.866 140.892 125.022L140.729 133.03Z" fill="white"/>
</g>
</g>
</g>
<g id="Group_24">
<g id="Group_25">
<g id="Group_26">
<path id="Vector_13" d="M141.991 124.955C141.966 124.864 142.393 124.812 143.275 124.799C144.251 124.795 144.751 124.869 144.776 125.025L145.445 130.138L146.738 124.938C146.779 124.817 147.109 124.754 147.723 124.747C148.343 124.743 148.675 124.797 148.718 124.912L150.092 130.121L150.77 124.938C150.789 124.851 150.983 124.791 151.358 124.756C151.731 124.721 152.03 124.702 152.253 124.695C153.144 124.691 153.578 124.743 153.555 124.851L152.109 132.929C152.072 133.056 151.831 133.15 151.385 133.206C150.938 133.264 150.574 133.297 150.291 133.301C149.242 133.308 148.693 133.197 148.646 132.972L147.742 129.635L146.846 132.981C146.81 133.126 146.512 133.232 145.951 133.301C145.666 133.332 145.382 133.345 145.092 133.345L144.279 133.319C143.722 133.267 143.429 133.169 143.392 133.024L141.991 124.955Z" fill="white"/>
</g>
</g>
</g>
<g id="Group_27">
<g id="Group_28">
<g id="Group_29">
<path id="Vector_14" d="M160.964 132.963C160.227 132.994 159.829 132.894 159.77 132.669L159.273 131.117L157.257 131.195L156.958 132.712C156.915 132.968 156.515 133.109 155.756 133.137C155.351 133.154 155.051 133.145 154.852 133.111C154.653 133.072 154.553 133.037 154.553 133.007L156.452 124.704C156.452 124.635 157.031 124.581 158.188 124.539C159.345 124.494 159.924 124.505 159.924 124.574L162.465 132.721C162.469 132.779 162.277 132.831 161.886 132.877C161.493 132.924 161.185 132.953 160.964 132.963ZM157.51 129.627L158.848 129.583L158.179 127.096H158.098L157.51 129.627Z" fill="white"/>
</g>
</g>
</g>
<g id="Group_30">
<g id="Group_31">
<g id="Group_32">
<path id="Vector_15" d="M167.609 124.439C167.704 124.15 168.235 123.977 169.2 123.919C169.446 123.901 169.738 123.899 170.077 123.91C170.414 123.923 170.568 123.958 170.538 124.014L168.251 129.24L168.45 132.204C168.454 132.338 168.228 132.447 167.771 132.533C167.536 132.585 167.304 132.618 167.075 132.629C166.845 132.642 166.616 132.644 166.388 132.637C165.918 132.609 165.678 132.522 165.674 132.377L165.475 129.491L162.428 124.534C162.387 124.482 162.554 124.426 162.934 124.361C163.307 124.291 163.626 124.248 163.893 124.231C164.923 124.174 165.497 124.283 165.62 124.56L166.723 126.978L167.609 124.439Z" fill="white"/>
</g>
</g>
</g>
<g id="Group_33">
<g id="Group_34">
<g id="Group_35">
<path id="Vector_16" d="M203.164 84.0251C203.164 84.6729 203.109 85.2904 203.001 85.8798C202.892 86.4691 202.739 86.9934 202.54 87.4571C200.881 87.4441 199.086 87.3141 197.151 87.0671C195.216 86.8244 193.661 86.5233 192.485 86.1658C192.485 85.5894 192.51 85.1409 192.558 84.8224C192.601 84.4996 192.671 84.2028 192.766 83.9298C194.839 82.6254 196.455 81.3558 197.612 80.1251C198.769 78.8944 199.348 77.8328 199.348 76.9358C199.348 76.4851 199.262 76.1449 199.095 75.9131C198.932 75.6834 198.688 75.5664 198.363 75.5664C197.976 75.5664 197.666 75.7723 197.431 76.1818C197.196 76.5934 196.97 77.3236 196.753 78.3744C195.939 78.3744 195.209 78.3181 194.565 78.2011C193.925 78.0863 193.347 77.9043 192.829 77.6551C193.231 76.1948 193.907 75.1071 194.854 74.3964C195.806 73.6814 197.061 73.3218 198.616 73.3218C200.135 73.3218 201.369 73.6836 202.323 74.4051C203.281 75.1223 203.76 76.0496 203.76 77.1871C203.76 78.3658 203.304 79.4578 202.395 80.4631C201.491 81.4684 199.859 82.6991 197.504 84.1551C199.649 84.1551 201.005 84.1464 201.572 84.1291C202.144 84.1074 202.675 84.0728 203.164 84.0251Z" fill="white"/>
</g>
</g>
</g>
</g>
</svg>
