<svg width="250" height="199" viewBox="0 0 250 199" fill="none" xmlns="http://www.w3.org/2000/svg">
<mask id="mask0_9_173" style="mask-type:luminance" maskUnits="userSpaceOnUse" x="14" y="26" width="96" height="97">
<path d="M14.6666 26.3333H109.333V123H14.6666V26.3333Z" fill="white"/>
</mask>
<g mask="url(#mask0_9_173)">
<mask id="mask1_9_173" style="mask-type:luminance" maskUnits="userSpaceOnUse" x="0" y="11" width="126" height="125">
<path d="M39.4948 11.5912L125.141 51.5313L86.0468 135.365L0.401001 95.4245L39.4948 11.5912Z" fill="white"/>
</mask>
<g mask="url(#mask1_9_173)">
<mask id="mask2_9_173" style="mask-type:luminance" maskUnits="userSpaceOnUse" x="0" y="11" width="126" height="125">
<path d="M39.4948 11.5912L125.141 51.5313L86.0468 135.365L0.401001 95.4245L39.4948 11.5912Z" fill="white"/>
</mask>
<g mask="url(#mask2_9_173)">
<mask id="mask3_9_173" style="mask-type:luminance" maskUnits="userSpaceOnUse" x="0" y="11" width="126" height="125">
<path d="M39.5599 11.6224L125.125 51.5235L85.9974 135.432L0.429688 95.5287L39.5599 11.6224Z" fill="white"/>
</mask>
<g mask="url(#mask3_9_173)">
<mask id="mask4_9_173" style="mask-type:luminance" maskUnits="userSpaceOnUse" x="0" y="11" width="126" height="125">
<path d="M39.5597 11.6224L125.026 51.4792L85.9034 135.372L0.434692 95.5157L39.5597 11.6224Z" fill="white"/>
</mask>
<g mask="url(#mask4_9_173)">
<path fill-rule="evenodd" clip-rule="evenodd" d="M104.927 94.5547C115.552 70.5521 104.875 42.0808 81.0912 30.9896C60.2995 21.2917 36.3699 28.0547 23.5704 45.9089C26.8334 42.2969 31.9037 38.0599 38.9818 35.7657C52.8673 31.2526 60.6537 33.698 60.6537 33.698C33.2084 35.0261 14.7266 59.8829 15.0183 80.0026C16.2292 89.4974 20.2396 98.5391 26.5495 105.846C28.5313 107.43 30.6511 108.526 32.0001 105.495L32.0183 105.503C33.0704 99.7188 34.6745 88.4688 33.8438 86.3907C32.7579 83.6901 27.9428 82.6302 27.211 79.6355C26.4896 76.6224 32.935 45.9115 32.935 45.9115C32.935 45.9115 33.823 45.5131 34.3074 46.0261C34.7761 46.573 30.4376 74.6016 30.8959 75.4974C31.3568 76.3907 31.3829 76.0079 31.7865 76.2188C32.1355 76.2709 32.5938 76.4193 33.2214 75.3073C33.8594 74.1797 36.6042 47.4037 36.7631 47.0157C36.9115 46.6042 37.3855 45.3542 38.211 45.9375C39.0443 46.5026 36.3464 74.4401 36.5912 75.2787C36.8542 76.125 37.2292 76.125 37.6407 76.2735C38.0131 76.1823 38.2553 76.2735 38.6068 75.5183C38.9714 74.7865 40.6772 46.7136 41.573 46.2969C42.4766 45.8646 42.7631 47.1823 42.8438 47.6146C42.9298 48.0495 41.474 74.9688 41.9272 76.1641C42.3594 77.3542 42.8022 77.2969 43.1407 77.323C43.6173 77.1954 43.6016 77.5599 44.211 76.7683C44.81 75.9532 44.8725 47.5521 45.4115 47.1016C45.9584 46.6771 46.7917 47.2396 46.7917 47.2396C46.7917 47.2396 48.2995 78.6771 47.1407 81.4922C45.974 84.3256 40.8725 84.7761 39.4089 87.2526C38.2605 89.1537 37.948 102.146 38.0626 108.956C38.1511 110.271 38.461 112.148 39.4897 113.284C41.2032 115.203 42.4714 114.742 43.4975 112.589L55.112 88.3464C55.4089 87.474 55.6407 86.5964 55.6303 85.8672C55.599 85.086 55.3594 84.3802 55.0782 83.8542C51.4897 80.448 50.2943 74.8698 53.5704 67.4688C57.7449 58.0964 67.5209 49.3177 73.5574 52.1302C79.5938 54.9454 79.5834 68.2787 75.4272 77.6615C72.3464 84.6459 67.823 87.474 63.2397 87.3334C62.6042 87.5183 61.7058 87.8464 60.9818 88.4089C60.487 88.8125 59.9324 89.6719 59.4766 90.5573L49.3464 114.724L49.3647 114.732C49.3647 114.732 49.0209 117.445 50.3334 117.969C51.0001 118.237 51.81 117.628 52.4428 116.979L52.4219 116.969C52.4219 116.969 52.6641 116.688 53.1147 116.195C53.3464 115.885 53.4897 115.669 53.4897 115.669L53.5365 115.711C59.2318 109.286 84.8907 80.2761 87.1772 77.349C89.7657 74.0573 96.0027 66.7006 97.8438 69.2943C99.685 71.8829 95.7084 82.9948 88.7865 93.9375C81.8438 104.87 75.8881 110.495 71.724 112.086C67.5522 113.648 65.1798 110.172 62.1824 113.164C60.1589 115.201 58.2683 117.654 57.2475 119.044C57.1016 119.591 56.9063 120.904 58.0105 121.638C58.573 122.031 59.3438 122.216 60.0417 122.32C60.6277 122.331 61.224 122.367 61.8204 122.362C79.8568 122.589 97.086 112.263 104.927 94.5547Z" fill="#FEC017"/>
</g>
</g>
</g>
</g>
</g>
<path d="M127.435 78.2925L126.8 87.605C125.959 87.8055 124.748 87.9513 123.165 88.0425C121.586 88.131 120.157 88.131 118.873 88.0425C118.732 81.0294 118.701 74.6544 118.779 68.9175C118.862 63.1831 119.034 58.3315 119.3 54.3654C119.542 54.2143 119.727 54.1102 119.852 54.0529C119.982 53.9982 120.118 53.9461 120.258 53.8966C121.55 53.3341 123.024 52.9071 124.685 52.6154C126.344 52.3237 128.053 52.2065 129.81 52.2612C131.545 55.1857 133.053 58.0321 134.331 60.8029C135.607 63.5685 136.769 66.5164 137.81 69.6466C138.066 65.8081 138.217 62.3836 138.258 59.3758C138.3 56.3706 138.243 53.9149 138.092 52.0112C139.792 51.6102 141.467 51.3289 143.112 51.1675C144.764 51.0086 146.389 50.98 147.987 51.0841C147.959 52.9123 147.904 54.6753 147.821 56.3758C147.737 58.0789 147.644 59.73 147.54 61.3341C147.269 65.2664 146.899 69.381 146.435 73.6779C145.969 77.9696 145.459 82.0893 144.904 86.0321C142.896 86.2196 141.24 86.3393 139.935 86.3966C138.628 86.4513 137.365 86.4722 136.144 86.4591C134.435 81.355 133.003 77.4071 131.852 74.6154C130.706 71.8237 129.503 69.2586 128.248 66.9175C128.123 68.23 128.008 69.6779 127.904 71.2612C127.8 72.8446 127.644 75.1883 127.435 78.2925Z" fill="#FF4500"/>
<path d="M165.364 52.6161C169.219 52.6447 172.187 53.9234 174.271 56.4494C176.359 58.9781 177.391 62.551 177.364 67.1682C177.349 69.676 176.995 72.2177 176.302 74.7932C175.614 77.3713 174.672 79.6526 173.479 81.6369C171.984 84.0067 170.172 85.801 168.042 87.0223C165.917 88.2359 163.523 88.8374 160.864 88.8244C157.016 88.7958 154.026 87.2984 151.896 84.3244C149.763 81.3453 148.711 77.3218 148.739 72.2515C148.773 66.4468 150.325 61.7177 153.396 58.064C156.463 54.4052 160.453 52.59 165.364 52.6161ZM162.927 82.5848C164.37 82.5927 165.45 81.6031 166.167 79.6161C166.888 77.6317 167.263 74.3427 167.292 69.7515C167.312 65.8088 167.013 63.0093 166.396 61.3557C165.784 59.6968 164.739 58.8635 163.26 58.8557C161.786 58.8505 160.651 59.9025 159.854 62.0119C159.055 64.1239 158.646 67.1031 158.625 70.9494C158.604 74.6109 158.961 77.4651 159.698 79.5119C160.44 81.5536 161.516 82.5796 162.927 82.5848Z" fill="#FF4500"/>
<path d="M216.469 86.4607C214.745 87.2393 213.149 87.8018 211.678 88.1482C210.204 88.4945 208.511 88.7263 206.594 88.8461C206.683 85.5909 206.691 81.794 206.615 77.4607C206.545 73.1274 206.428 68.5388 206.261 63.6899C205.191 65.7524 204.209 67.8722 203.313 70.044C202.417 72.2185 201.607 74.4555 200.886 76.7524C200.128 77.0232 199.211 77.2081 198.136 77.3044C197.066 77.4034 196.032 77.3878 195.032 77.2628C193.974 75.2289 192.857 73.2472 191.678 71.3149C190.503 69.3774 189.264 67.4998 187.959 65.6794C188.193 69.5544 188.646 73.3774 189.313 77.1482C189.98 80.919 190.753 84.044 191.636 86.5232C190.795 86.8357 189.5 87.143 187.75 87.4399C186 87.7393 184.37 87.9347 182.865 88.0232C181.995 83.8722 181.152 78.5518 180.334 72.0649C179.521 65.5727 178.961 59.8435 178.657 54.8774C179.982 53.8305 181.448 52.919 183.053 52.1482C184.662 51.3774 186.183 50.8513 187.615 50.5649C190.094 53.406 192.183 56.0128 193.886 58.3878C195.594 60.7576 197.066 63.0753 198.303 65.3461C199.349 62.4503 200.521 59.669 201.813 57.0024C203.11 54.3305 204.506 51.8253 206 49.4919C207.297 49.6039 208.597 49.8044 209.896 50.0961C211.193 50.3826 212.441 50.7602 213.636 51.2315C214.128 55.6065 214.625 60.9477 215.125 67.2524C215.625 73.5597 216.073 79.9607 216.469 86.4607Z" fill="#FF4500"/>
<path d="M136.805 104.61C136.977 104.772 137.279 104.993 137.711 105.277C138.148 105.556 138.57 105.709 138.982 105.735C139.398 105.764 139.617 105.616 139.638 105.288C139.651 105.142 139.602 105.012 139.492 104.892C139.38 104.775 139.172 104.631 138.867 104.465C138.568 104.298 138.346 104.17 138.2 104.079C138.055 103.983 137.857 103.829 137.607 103.621C137.362 103.413 137.182 103.204 137.065 102.996C136.711 102.413 136.56 101.694 136.617 100.84C136.672 99.9855 137.034 99.2849 137.7 98.7355C138.372 98.1886 139.227 97.949 140.263 98.0167C140.964 98.0662 141.607 98.1886 142.19 98.3813C142.773 98.5688 143.068 98.7849 143.075 99.0271C143.075 99.0558 143.07 99.0844 143.065 99.1105C143.044 99.4516 142.909 99.8761 142.659 100.381C142.409 100.889 142.242 101.168 142.159 101.215C141.555 100.86 141.005 100.67 140.513 100.642C140.018 100.608 139.758 100.762 139.732 101.1C139.716 101.316 139.888 101.517 140.242 101.704C140.318 101.746 140.424 101.808 140.565 101.892C140.703 101.97 140.862 102.058 141.044 102.163C141.232 102.267 141.43 102.397 141.638 102.548C141.852 102.702 142.081 102.907 142.325 103.163C142.805 103.683 143.018 104.345 142.971 105.142C142.901 106.178 142.557 107.006 141.94 107.631C141.32 108.256 140.411 108.54 139.211 108.485C138.628 108.444 138.102 108.355 137.638 108.225C137.18 108.1 136.784 107.889 136.45 107.59C136.117 107.285 135.964 106.933 135.992 106.538C136.018 106.137 136.117 105.743 136.284 105.36C136.456 104.972 136.63 104.722 136.805 104.61Z" fill="black"/>
<path d="M149.64 98.9437C149.645 98.751 150.176 98.6781 151.234 98.7249C152.288 98.7666 152.812 98.8864 152.807 99.0791L152.505 105.777C152.463 106.772 152.072 107.566 151.338 108.162C150.601 108.759 149.609 109.03 148.359 108.975C147.109 108.925 146.103 108.563 145.348 107.881C144.598 107.194 144.244 106.303 144.286 105.204L144.567 98.7353C144.58 98.5426 145.114 98.4697 146.171 98.5166C147.234 98.5583 147.757 98.6781 147.744 98.8708L147.463 105.454C147.455 105.649 147.549 105.808 147.744 105.933C147.952 106.066 148.171 106.139 148.4 106.152C148.635 106.16 148.851 106.116 149.046 106.017C149.239 105.912 149.34 105.754 149.348 105.537L149.64 98.9437Z" fill="black"/>
<path d="M162.13 108.892C162.122 109.101 161.661 109.194 160.745 109.173C159.828 109.158 159.331 109.08 159.255 108.934L156.911 104.319L156.818 108.861C156.818 109.035 156.364 109.111 155.463 109.09C154.56 109.075 154.109 108.983 154.109 108.809L154.307 99.0381C154.307 98.887 154.693 98.8193 155.463 98.8401C155.76 98.8401 156.112 98.8766 156.516 98.9443C156.924 99.0068 157.174 99.111 157.266 99.2568L159.505 103.798L159.599 99.2151C159.599 99.0276 160.049 98.9443 160.953 98.9651C161.862 98.9808 162.318 99.0797 162.318 99.2672L162.13 108.892Z" fill="black"/>
<path d="M163.584 99.1866C163.555 99.0772 164.048 99.0147 165.063 98.9991C166.188 98.9939 166.764 99.0824 166.792 99.2699L167.563 105.416L169.053 99.1658C169.1 99.0199 169.48 98.9444 170.188 98.9366C170.902 98.9314 171.285 98.9965 171.334 99.1345L172.917 105.395L173.699 99.1658C173.719 99.0616 173.943 98.9887 174.376 98.947C174.805 98.9054 175.149 98.8819 175.407 98.8741C176.433 98.8689 176.933 98.9314 176.907 99.0616L175.24 108.77C175.199 108.924 174.92 109.036 174.407 109.103C173.891 109.174 173.472 109.213 173.147 109.218C171.938 109.226 171.305 109.093 171.251 108.822L170.209 104.812L169.178 108.832C169.136 109.007 168.792 109.135 168.147 109.218C167.818 109.254 167.49 109.27 167.157 109.27L166.219 109.239C165.579 109.176 165.24 109.059 165.199 108.885L163.584 99.1866Z" fill="black"/>
<path d="M185.442 108.812C184.593 108.848 184.135 108.729 184.067 108.458L183.494 106.593L181.171 106.687L180.828 108.51C180.778 108.817 180.317 108.986 179.442 109.02C178.976 109.041 178.63 109.031 178.401 108.989C178.171 108.942 178.057 108.9 178.057 108.864L180.244 98.8848C180.244 98.8015 180.911 98.7364 182.244 98.6869C183.578 98.6322 184.244 98.6452 184.244 98.7286L187.171 108.52C187.177 108.591 186.955 108.653 186.505 108.708C186.052 108.765 185.698 108.799 185.442 108.812ZM181.463 104.801L183.005 104.749L182.234 101.76H182.14L181.463 104.801Z" fill="black"/>
<path d="M193.098 98.5657C193.207 98.2193 193.819 98.011 194.931 97.9407C195.215 97.9198 195.551 97.9172 195.941 97.9303C196.329 97.9459 196.506 97.9876 196.473 98.0553L193.837 104.337L194.066 107.899C194.072 108.06 193.811 108.191 193.285 108.295C193.014 108.357 192.746 108.396 192.483 108.409C192.217 108.425 191.954 108.428 191.691 108.42C191.15 108.386 190.874 108.282 190.868 108.107L190.639 104.639L187.129 98.6803C187.082 98.6178 187.275 98.5501 187.712 98.4719C188.142 98.3886 188.509 98.3365 188.816 98.3157C190.004 98.248 190.665 98.3782 190.806 98.7115L192.077 101.618L193.098 98.5657Z" fill="black"/>
<path d="M234.06 49.9918C234.06 50.7704 233.997 51.5126 233.872 52.2209C233.747 52.9293 233.57 53.5595 233.341 54.1168C231.429 54.1012 229.362 53.9449 227.132 53.648C224.903 53.3564 223.112 52.9944 221.757 52.5647C221.757 51.872 221.786 51.3329 221.841 50.9501C221.89 50.5621 221.971 50.2053 222.08 49.8772C224.468 48.3095 226.33 46.7834 227.664 45.3043C228.997 43.8251 229.664 42.5491 229.664 41.4709C229.664 40.9293 229.565 40.5204 229.372 40.2418C229.185 39.9657 228.903 39.8251 228.528 39.8251C228.083 39.8251 227.726 40.0725 227.455 40.5647C227.185 41.0595 226.924 41.9371 226.674 43.2001C225.737 43.2001 224.895 43.1324 224.153 42.9918C223.416 42.8538 222.75 42.635 222.153 42.3355C222.617 40.5803 223.395 39.273 224.487 38.4189C225.583 37.5595 227.028 37.1272 228.82 37.1272C230.57 37.1272 231.992 37.5621 233.091 38.4293C234.195 39.2913 234.747 40.4058 234.747 41.773C234.747 43.1897 234.221 44.5022 233.174 45.7105C232.132 46.9189 230.252 48.398 227.539 50.148C230.01 50.148 231.573 50.1376 232.226 50.1168C232.885 50.0907 233.497 50.0491 234.06 49.9918Z" fill="#FF4500"/>
</svg>
