<svg width="221" height="96" viewBox="0 0 221 96" fill="none" xmlns="http://www.w3.org/2000/svg">
<mask id="mask0_750_795" style="mask-type:luminance" maskUnits="userSpaceOnUse" x="0" y="0" width="96" height="96">
<path d="M0.666504 0.786621H95.3332V95.52H0.666504V0.786621Z" fill="white"/>
</mask>
<g mask="url(#mask0_750_795)">
<mask id="mask1_750_795" style="mask-type:luminance" maskUnits="userSpaceOnUse" x="-14" y="-14" width="126" height="122">
<path d="M25.4946 -13.6606L111.14 25.4807L72.0467 107.637L-13.5991 68.496L25.4946 -13.6606Z" fill="white"/>
</mask>
<g mask="url(#mask1_750_795)">
<mask id="mask2_750_795" style="mask-type:luminance" maskUnits="userSpaceOnUse" x="-14" y="-14" width="126" height="122">
<path d="M25.4946 -13.6606L111.14 25.4807L72.0467 107.637L-13.5991 68.496L25.4946 -13.6606Z" fill="white"/>
</mask>
<g mask="url(#mask2_750_795)">
<mask id="mask3_750_795" style="mask-type:luminance" maskUnits="userSpaceOnUse" x="-14" y="-14" width="126" height="122">
<path d="M25.5599 -13.6301L111.125 25.4729L71.9974 107.704L-13.5703 68.598L25.5599 -13.6301Z" fill="white"/>
</mask>
<g mask="url(#mask3_750_795)">
<mask id="mask4_750_795" style="mask-type:luminance" maskUnits="userSpaceOnUse" x="-14" y="-14" width="126" height="122">
<path d="M25.5596 -13.6301L111.026 25.4295L71.9033 107.645L-13.5654 68.5852L25.5596 -13.6301Z" fill="white"/>
</mask>
<g mask="url(#mask4_750_795)">
<path fill-rule="evenodd" clip-rule="evenodd" d="M90.9269 67.6436C101.552 44.1211 90.8748 16.2191 67.091 5.34981C46.2993 -4.15415 22.3696 2.47361 9.57014 19.9707C12.8332 16.431 17.9035 12.2787 24.9816 10.0303C38.867 5.60757 46.6535 8.00398 46.6535 8.00398C19.2082 9.30554 0.726385 33.6652 1.01805 53.3826C2.22899 62.6875 6.23941 71.5483 12.5493 78.7095C14.5311 80.2611 16.6509 81.3355 17.9998 78.3649L18.0181 78.3726C19.0701 72.7044 20.6743 61.6794 19.8436 59.6428C18.7576 56.9963 13.9425 55.9576 13.2108 53.0227C12.4894 50.07 18.9347 19.9732 18.9347 19.9732C18.9347 19.9732 19.8227 19.5828 20.3071 20.0855C20.7759 20.6215 16.4373 48.0896 16.8957 48.9675C17.3566 49.8428 17.3826 49.4677 17.7863 49.6744C18.1352 49.7254 18.5936 49.8709 19.2212 48.7812C19.8592 47.6761 22.604 21.4356 22.7628 21.0553C22.9113 20.6521 23.3852 19.4271 24.2108 19.9988C25.0441 20.5526 22.3462 47.9313 22.591 48.7531C22.854 49.5825 23.229 49.5825 23.6404 49.728C24.0128 49.6387 24.255 49.728 24.6066 48.9879C24.9712 48.2708 26.6769 20.7593 27.5727 20.351C28.4764 19.9273 28.7628 21.2187 28.8436 21.6423C28.9295 22.0685 27.4738 48.4494 27.9269 49.6208C28.3592 50.7871 28.8019 50.731 29.1404 50.7565C29.617 50.6314 29.6014 50.9887 30.2108 50.2129C30.8097 49.4141 30.8722 21.5811 31.4113 21.1396C31.9582 20.7236 32.7915 21.2748 32.7915 21.2748C32.7915 21.2748 34.2993 52.0836 33.1404 54.8424C31.9738 57.619 26.8722 58.0605 25.4087 60.4876C24.2602 62.3506 23.9477 75.0829 24.0623 81.7566C24.1509 83.0454 24.4608 84.8855 25.4894 85.9982C27.2029 87.8791 28.4712 87.4274 29.4972 85.3168L41.1118 61.5595C41.4087 60.7045 41.6404 59.8445 41.63 59.1299C41.5988 58.3642 41.3592 57.6726 41.0779 57.1571C37.4894 53.819 36.2941 48.3524 39.5701 41.0994C43.7446 31.9144 53.5207 23.3114 59.5571 26.0676C65.5936 28.8264 65.5832 41.8931 61.4269 51.0883C58.3462 57.9329 53.8227 60.7045 49.2394 60.5667C48.604 60.7479 47.7056 61.0695 46.9816 61.6207C46.4868 62.0163 45.9321 62.8585 45.4764 63.7262L35.3462 87.4095L35.3644 87.4172C35.3644 87.4172 35.0207 90.0764 36.3332 90.5894C36.9998 90.8523 37.8097 90.2551 38.4425 89.6196L38.4217 89.6094C38.4217 89.6094 38.6639 89.3338 39.1144 88.8514C39.3462 88.5477 39.4894 88.3359 39.4894 88.3359L39.5363 88.3767C45.2316 82.0808 70.8904 53.6505 73.1769 50.782C75.7654 47.5562 82.0024 40.3465 83.8436 42.8884C85.6847 45.4252 81.7082 56.3149 74.7863 67.0388C67.8436 77.7524 61.8878 83.2649 57.7238 84.8242C53.5519 86.3555 51.1795 82.9485 48.1821 85.8808C46.1587 87.8765 44.2681 90.2806 43.2472 91.6434C43.1014 92.1794 42.9061 93.4656 44.0102 94.1853C44.5727 94.5707 45.3436 94.7519 46.0415 94.8539C46.6274 94.8641 47.2238 94.8999 47.8201 94.8948C65.8566 95.1168 83.0858 84.9978 90.9269 67.6436Z" fill="#FEC017"/>
</g>
</g>
</g>
</g>
</g>
<path d="M113.435 51.7065L112.8 60.8328C111.959 61.0293 110.748 61.1722 109.165 61.2615C107.586 61.3483 106.157 61.3483 104.873 61.2615C104.732 54.3888 104.701 48.1413 104.779 42.519C104.862 36.8994 105.034 32.1448 105.3 28.258C105.542 28.11 105.727 28.0079 105.852 27.9518C105.982 27.8982 106.118 27.8471 106.258 27.7986C107.55 27.2474 109.024 26.8288 110.685 26.543C112.344 26.2572 114.053 26.1423 115.81 26.1959C117.545 29.0619 119.053 31.8513 120.331 34.5668C121.607 37.2771 122.769 40.166 123.81 43.2336C124.066 39.4719 124.217 36.1159 124.258 33.1682C124.3 30.2231 124.243 27.8165 124.092 25.9509C125.792 25.5579 127.467 25.2823 129.112 25.124C130.764 24.9684 132.389 24.9403 133.987 25.0424C133.959 26.8339 133.904 28.5617 133.821 30.2282C133.737 31.8973 133.644 33.5153 133.54 35.0874C133.269 38.941 132.899 42.9733 132.435 47.1843C131.969 51.3901 131.459 55.4275 130.904 59.2913C128.896 59.4751 127.24 59.5925 125.935 59.6486C124.628 59.7022 123.365 59.7226 122.144 59.7099C120.435 54.7078 119.003 50.8388 117.852 48.103C116.706 45.3672 115.503 42.8534 114.248 40.559C114.123 41.8453 114.008 43.2643 113.904 44.8159C113.8 46.3676 113.644 48.6645 113.435 51.7065Z" fill="#FF4500"/>
<path d="M151.364 26.5437C155.219 26.5718 158.187 27.8249 160.271 30.3004C162.359 32.7785 163.39 36.2799 163.364 40.8048C163.349 43.2624 162.995 45.7533 162.302 48.2773C161.614 50.8038 160.672 53.0395 159.479 54.9841C157.984 57.3065 156.172 59.0649 154.041 60.2619C151.916 61.4511 149.523 62.0407 146.864 62.0279C143.015 61.9998 140.026 60.5324 137.896 57.6179C135.763 54.6983 134.711 50.7553 134.739 45.7864C134.773 40.0978 136.325 35.4633 139.396 31.8827C142.463 28.297 146.453 26.5182 151.364 26.5437ZM148.927 55.9131C150.37 55.9208 151.45 54.951 152.166 53.0037C152.888 51.059 153.263 47.8358 153.291 43.3364C153.312 39.4726 153.013 36.7291 152.396 35.1085C151.784 33.4828 150.739 32.6662 149.26 32.6585C147.786 32.6534 146.651 33.6845 145.854 35.7516C145.054 37.8214 144.646 40.741 144.625 44.5104C144.604 48.0986 144.961 50.8957 145.698 52.9016C146.44 54.9025 147.515 55.908 148.927 55.9131Z" fill="#FF4500"/>
<path d="M202.469 59.7116C200.745 60.4746 199.149 61.0259 197.678 61.3653C196.204 61.7047 194.511 61.9319 192.594 62.0493C192.683 58.8592 192.691 55.1382 192.615 50.8916C192.545 46.6449 192.428 42.1481 192.261 37.3961C191.191 39.4174 190.209 41.4948 189.313 43.6232C188.417 45.7542 187.607 47.9464 186.886 50.1974C186.128 50.4628 185.211 50.644 184.136 50.7384C183.066 50.8354 182.032 50.8201 181.032 50.6976C179.974 48.7044 178.857 46.7623 177.678 44.8686C176.503 42.9699 175.264 41.1298 173.959 39.3459C174.193 43.1434 174.646 46.8899 175.313 50.5853C175.98 54.2807 176.753 57.3432 177.636 59.7728C176.795 60.0791 175.5 60.3802 173.75 60.6711C172 60.9646 170.37 61.156 168.865 61.2428C167.995 57.1748 167.152 51.9609 166.334 45.6036C165.521 39.2413 164.961 33.6267 164.657 28.7599C165.982 27.7339 167.448 26.8407 169.053 26.0853C170.662 25.3299 172.183 24.8144 173.615 24.5336C176.094 27.318 178.183 29.8726 179.886 32.2001C181.594 34.5225 183.066 36.7938 184.303 39.0193C185.349 36.1813 186.521 33.4557 187.813 30.8424C189.11 28.2239 190.506 25.7688 192 23.4822C193.297 23.5919 194.597 23.7884 195.896 24.0743C197.193 24.355 198.441 24.725 199.636 25.187C200.128 29.4745 200.625 34.7088 201.125 40.8874C201.625 47.0685 202.073 53.3416 202.469 59.7116Z" fill="#FF4500"/>
<path d="M124.954 81.1432C124.084 81.0743 123.657 80.9442 123.673 80.7553L123.819 75.0182L121.6 80.6736C121.543 80.7808 121.204 80.8115 120.579 80.7655C119.959 80.7247 119.644 80.6481 119.631 80.5409L118.267 74.5384L117.61 80.2143C117.59 80.3572 117.394 80.4389 117.027 80.4593C116.665 80.4848 116.366 80.4899 116.131 80.4695C115.894 80.4542 115.665 80.4235 115.444 80.3776C114.985 80.2755 114.767 80.1403 114.787 79.9693L115.85 70.7205C115.871 70.4908 116.475 70.4194 117.662 70.5061C118.009 70.5342 118.433 70.5955 118.933 70.6899C119.433 70.7792 119.707 70.9017 119.756 71.0574L121.037 75.6716L122.819 71.2718C122.928 71.0268 123.61 70.9528 124.86 71.0472C125.22 71.0753 125.647 71.1365 126.142 71.2309C126.634 71.3203 126.876 71.4326 126.871 71.5678L126.548 80.9697C126.54 81.0718 126.345 81.1279 125.965 81.1432C125.582 81.1636 125.246 81.1636 124.954 81.1432Z" fill="black"/>
<path d="M133.544 75.5417C133.731 75.5493 133.807 75.8862 133.773 76.5523C133.765 76.7565 133.731 76.9913 133.669 77.2567C133.612 77.5221 133.526 77.6548 133.409 77.6548L131.565 77.5629L131.481 78.9921L134.159 79.1248C134.325 79.1325 134.429 79.3468 134.471 79.7679C134.492 79.9517 134.494 80.1507 134.481 80.36C134.474 80.5642 134.432 80.8271 134.356 81.1461C134.278 81.4651 134.172 81.6207 134.034 81.6156L129.044 81.3604C128.674 81.3451 128.497 81.1946 128.513 80.9011L128.992 71.6931C129.005 71.4481 129.122 71.3307 129.346 71.3359L134.575 71.6013C134.776 71.6089 134.851 72.0351 134.804 72.8773C134.763 73.7221 134.64 74.1406 134.44 74.1329L131.742 74.0002L131.669 75.4498L133.544 75.5417Z" fill="black"/>
<path d="M138.981 81.5828C138.973 81.7385 138.507 81.8023 137.585 81.7768C136.648 81.7487 136.182 81.6645 136.19 81.5216L136.471 72.1809C136.484 71.8492 136.671 71.6884 137.033 71.7011L139.825 71.7828C142.387 71.8594 143.637 72.8751 143.575 74.8351C143.554 75.4272 143.419 75.9631 143.169 76.4378C142.924 76.9074 142.585 77.28 142.148 77.5505L143.898 80.6232C143.815 80.8478 143.554 81.1005 143.117 81.3786C142.518 81.7717 142.028 81.9631 141.648 81.9503C141.265 81.935 140.984 81.7972 140.804 81.5318L139.533 78.357L139.075 78.3366L138.981 81.5828ZM139.2 74.2941L139.137 76.448H139.21C140.132 76.4837 140.606 76.1214 140.627 75.3659C140.64 75.0189 140.559 74.7611 140.387 74.5901C140.213 74.414 139.921 74.3196 139.512 74.3043L139.2 74.2941Z" fill="black"/>
<path d="M149.567 71.8328C150.28 71.8405 150.905 71.9451 151.442 72.1493C151.983 72.3483 152.249 72.6137 152.244 72.9455C152.244 73.2798 152.111 73.6958 151.848 74.1909C151.582 74.6809 151.364 74.9234 151.192 74.9157C151.142 74.9157 151.088 74.8902 151.025 74.8341C150.963 74.7805 150.817 74.7218 150.588 74.6605C150.358 74.5993 150.16 74.5661 149.994 74.5584C149.431 74.5584 148.973 74.7524 148.619 75.1403C148.27 75.5282 148.093 76.128 148.088 76.937C148.08 77.7409 148.249 78.3406 148.598 78.7336C148.952 79.1292 149.403 79.3257 149.952 79.3257C150.173 79.3334 150.423 79.3053 150.702 79.2441C150.978 79.1828 151.181 79.0986 151.306 78.9888C151.327 78.9684 151.364 78.9582 151.421 78.9582C151.483 78.9582 151.59 79.068 151.744 79.2849C151.903 79.4967 152.048 79.78 152.181 80.1322C152.311 80.4869 152.379 80.76 152.379 80.9488C152.371 81.3163 152.077 81.6098 151.494 81.8268C150.91 82.036 150.218 82.1381 149.421 82.133C148.134 82.1177 147.08 81.6685 146.254 80.7753C145.434 79.877 145.03 78.6188 145.046 76.9982C145.059 75.3802 145.496 74.1144 146.358 73.2007C147.226 72.282 148.296 71.8277 149.567 71.8328Z" fill="black"/>
<path d="M161.945 81.6574C161.945 81.8207 161.45 81.91 160.466 81.9228C159.486 81.9381 158.997 81.8615 158.997 81.6982L158.945 78.4009L156.903 78.4315L156.955 81.7288C156.955 81.8922 156.46 81.9815 155.476 81.9942C154.489 82.0095 153.997 81.933 153.997 81.7697L153.861 72.2759C153.854 72.0717 154.343 71.9645 155.33 71.9492C156.315 71.9365 156.812 72.0309 156.82 72.2351L156.861 75.6038L158.903 75.5732L158.861 72.2351C158.861 72.0998 159.101 72.0003 159.58 71.939C159.835 71.9186 160.085 71.9058 160.33 71.8982L161.07 71.9186C161.562 71.9671 161.809 72.059 161.809 72.1942L161.945 81.6574Z" fill="black"/>
<path d="M170.783 81.6294C169.934 81.6651 169.476 81.5477 169.408 81.2823L168.845 79.455L166.522 79.5367L166.168 81.3333C166.119 81.6268 165.658 81.7901 164.783 81.8233C164.317 81.8437 163.97 81.8335 163.741 81.7927C163.512 81.7468 163.397 81.7059 163.397 81.6702L165.606 71.9008C165.606 71.8192 166.272 71.7553 167.606 71.7069C168.944 71.6533 169.616 71.666 169.616 71.7477L172.512 81.3537C172.517 81.4226 172.296 81.4839 171.845 81.5375C171.392 81.5936 171.038 81.6243 170.783 81.6294ZM166.814 77.6992L168.356 77.6379L167.585 74.7183H167.491L166.814 77.6992Z" fill="black"/>
<path d="M181.963 80.6427C181.976 80.8469 181.525 80.9796 180.609 81.0409C179.697 81.097 179.202 81.0562 179.119 80.9184L176.39 76.6002L176.671 81.0409C176.684 81.2118 176.239 81.3267 175.338 81.3879C174.442 81.4441 173.986 81.3854 173.973 81.2144L173.369 71.6594C173.353 71.5114 173.734 71.4118 174.505 71.3634C174.801 71.3429 175.153 71.3506 175.557 71.3838C175.965 71.4118 176.223 71.4935 176.327 71.6288L178.942 75.8856L178.65 71.4042C178.643 71.2204 179.09 71.103 179.994 71.0469C180.895 70.9856 181.351 71.0469 181.359 71.2306L181.963 80.6427Z" fill="black"/>
<path d="M188.295 80.229C188.316 80.4204 187.847 80.5557 186.889 80.6373C185.93 80.7139 185.441 80.6552 185.42 80.4638L184.805 73.2976L183.055 73.4405C182.889 73.4558 182.753 73.2465 182.649 72.8178C182.602 72.6085 182.566 72.3941 182.545 72.1746C182.524 71.9501 182.524 71.7331 182.545 71.5213C182.566 71.0798 182.66 70.8527 182.826 70.8373L189.17 70.3167C189.329 70.304 189.464 70.5107 189.576 70.9394C189.618 71.1512 189.649 71.3682 189.67 71.5928C189.691 71.8122 189.693 72.0266 189.68 72.2359C189.652 72.6799 189.558 72.9071 189.399 72.9198L187.68 73.0628L188.295 80.229Z" fill="black"/>
<path d="M220.059 23.972C220.059 24.7351 219.997 25.4625 219.872 26.1566C219.747 26.8508 219.57 27.4684 219.341 28.0145C217.429 27.9992 215.361 27.8461 213.132 27.5552C210.903 27.2693 209.111 26.9146 207.757 26.4935C207.757 25.8146 207.786 25.2864 207.841 24.9112C207.89 24.5309 207.971 24.1813 208.08 23.8597C210.468 22.3234 212.33 20.8279 213.664 19.3783C214.997 17.9287 215.664 16.6782 215.664 15.6216C215.664 15.0908 215.565 14.6901 215.372 14.417C215.184 14.1465 214.903 14.0087 214.528 14.0087C214.083 14.0087 213.726 14.2512 213.455 14.7335C213.184 15.2184 212.924 16.0784 212.674 17.3162C211.736 17.3162 210.895 17.2499 210.153 17.112C209.416 16.9768 208.75 16.7624 208.153 16.4689C208.617 14.7488 209.395 13.4677 210.486 12.6306C211.583 11.7884 213.028 11.3647 214.82 11.3647C216.57 11.3647 217.992 11.7909 219.091 12.6408C220.195 13.4855 220.747 14.5778 220.747 15.9177C220.747 17.306 220.221 18.5922 219.174 19.7764C218.132 20.9606 216.252 22.4102 213.539 24.1252C216.01 24.1252 217.572 24.115 218.226 24.0945C218.885 24.069 219.497 24.0282 220.059 23.972Z" fill="#FF4500"/>
</svg>
